<svg width="535" height="661" viewBox="0 0 535 661" fill="none" xmlns="http://www.w3.org/2000/svg">
<path fill-rule="evenodd" clip-rule="evenodd" d="M351.303 161.5H534.846L441.57 331L534.845 501H351.302L267.505 660.062L181.701 501H0.167969L90.4336 331L0.166992 161.5H157.302L267.497 370.923L326.557 257.769L326.697 257.5H383.338L267.503 472.048L126.203 213.5H84.834L267.5 554.939L450.166 213.5H326.705L267.503 106.539L218.498 196.55L190.06 143.737L189.932 143.499L190.061 143.261L267.509 0.936523L351.303 161.5ZM53.3779 468H174.622L114 363L53.3779 468ZM361.512 467.5H484.488L423 361L361.512 467.5Z" fill="#E4A94E"/>
<path fill-rule="evenodd" clip-rule="evenodd" d="M351.313 161.487H535L441.651 331.002L535 501.018H351.313L267.5 660L181.679 501.018H0L90.3379 331.002L0 161.487H156.585L267.5 372.126L327.224 257.779H382.932L267.5 471.428L125.971 212.643H83.3115L267.5 556.687L451.688 212.643H327.224L267.5 104.815L218.316 195.089L190.211 142.931L267.5 1L351.313 161.487ZM52.5117 468.5H175.488L114 362L52.5117 468.5Z" fill="url(#paint0_linear_99_107)"/>
<defs>
<linearGradient id="paint0_linear_99_107" x1="106.938" y1="52.6652" x2="429.057" y2="483.726" gradientUnits="userSpaceOnUse">
<stop offset="0.471154" stop-color="#D9D9D9" stop-opacity="0"/>
<stop offset="0.657639" stop-color="white" stop-opacity="0.7"/>
<stop offset="0.784121" stop-color="#EAEAEA" stop-opacity="0"/>
</linearGradient>
</defs>
</svg>
